<svg xmlns="http://www.w3.org/2000/svg" width="91" height="25" fill="none" viewBox="0 0 91 25"><path fill="#fff" d="M22.1669 21.0332H26.1394V15.5129L28.2289 13.346L33.8266 21.0332H38.5988L30.9117 10.6375L38.2893 2.97609H33.4139L26.1394 10.8696V2.97609H22.1669V21.0332ZM44.7949 21.3428C49.1028 21.3428 52.3015 18.1183 52.3015 14.1457V14.0941C52.3015 10.1216 49.1286 6.94866 44.8465 6.94866C40.5385 6.94866 37.3399 10.1731 37.3399 14.1457V14.1973C37.3399 18.1699 40.5128 21.3428 44.7949 21.3428ZM44.8465 17.9635C42.6796 17.9635 41.2092 16.1836 41.2092 14.1457V14.0941C41.2092 12.0562 42.5506 10.3279 44.7949 10.3279C46.9617 10.3279 48.4321 12.1078 48.4321 14.1457V14.1973C48.4321 16.2352 47.0907 17.9635 44.8465 17.9635ZM58.004 21.2654C59.3196 21.2654 60.274 20.9558 61.0995 20.4657V17.3186C60.532 17.6281 59.8871 17.8087 59.1648 17.8087C58.2877 17.8087 57.9008 17.3702 57.9008 16.4673V10.5601H61.1511V7.20662H57.9008V3.67258H53.9798V7.20662H52.3289V10.5601H53.9798V17.1122C53.9798 20.3109 55.6049 21.2654 58.004 21.2654ZM62.4161 21.0332H66.337V2.20222H62.4161V21.0332ZM68.2913 5.68466H72.4186V2.20222H68.2913V5.68466ZM68.3945 21.0332H72.3154V7.20662H68.3945V21.0332ZM74.1923 21.0332H78.1133V13.3202C78.1133 11.4629 79.0677 10.5085 80.5639 10.5085C82.06 10.5085 82.9371 11.4629 82.9371 13.3202V21.0332H86.8581V12.082C86.8581 8.90914 85.1297 6.94866 82.1632 6.94866C80.1769 6.94866 79.0161 8.00629 78.1133 9.1671V7.20662H74.1923V21.0332Z"/><path fill="url(#paint0_linear)" d="M9.06217 3.00842L0 12.5384V21.058L9.04935 11.9931L18.0496 3.00842H9.06217Z"/><path fill="url(#paint1_linear)" d="M9.04935 11.9924L18.0496 21.0573H0L9.04935 11.9924Z"/><path fill="url(#paint2_linear)" d="M9.06217 3.00842L0 12.5384V3.00842H9.06217Z"/><defs><linearGradient id="paint0_linear" x1="5.359" x2="22.155" y1="28.001" y2="11.205" gradientUnits="userSpaceOnUse"><stop offset=".108" stop-color="#C757BC"/><stop offset=".173" stop-color="#CD5CA9"/><stop offset=".492" stop-color="#E8744F"/><stop offset=".716" stop-color="#F88316"/><stop offset=".823" stop-color="#FF8900"/></linearGradient><linearGradient id="paint1_linear" x1="13.922" x2="15.634" y1="23.341" y2="16.553" gradientUnits="userSpaceOnUse"><stop stop-color="#00AFFF"/><stop offset=".556" stop-color="#5282FF"/><stop offset="1" stop-color="#945DFF"/></linearGradient><linearGradient id="paint2_linear" x1="6.791" x2="13.29" y1="16.695" y2="11.375" gradientUnits="userSpaceOnUse"><stop stop-color="#00AFFF"/><stop offset=".556" stop-color="#5282FF"/><stop offset="1" stop-color="#945DFF"/></linearGradient></defs></svg>